# xmcd
#
# Track frame offsets:
#	150
#	5463
#	17673
#	28144
#	42652
#	54581
#	70908
#	79817
#	94701
#	110368
#
# Disc length: 1916 seconds
#
# Revision: 1
# Processed by: cddbd v1.5.2PL0 Copyright (c) Steve Scherf et al.
# Submitted via: dBpowerAMP V4.0
#
DISCID=7c077a0a
DTITLE=Magú - Pós moderno menestrel
DYEAR=2007
DGENRE=Alternative
TTITLE0=A união das harmonias
TTITLE1=Eu ofereço aos meus amigos
TTITLE2=Que pena
TTITLE3=dedo medio
TTITLE4=Pos moderno menestrel
TTITLE5=Hora do recreio
TTITLE6=samurai de papel
TTITLE7=Um lugar distante
TTITLE8=fim do mundo fim do mes
TTITLE9=tio nivaldo
EXTD=Pós moderno menestrel
EXTT0=
EXTT1=
EXTT2=
EXTT3=
EXTT4=
EXTT5=
EXTT6=
EXTT7=
EXTT8=
EXTT9=
PLAYORDER=
